<svg width="50" height="50" viewBox="0 0 50 50" fill="none" xmlns="http://www.w3.org/2000/svg">
<path d="M36.7188 38.2812C39.3076 38.2812 41.4062 36.1826 41.4062 33.5938C41.4062 31.0049 39.3076 28.9062 36.7188 28.9062C34.1299 28.9062 32.0312 31.0049 32.0312 33.5938C32.0312 36.1826 34.1299 38.2812 36.7188 38.2812Z" stroke="#ECE8E8" stroke-width="2" stroke-linecap="round" stroke-linejoin="round"/>
<path d="M30.6641 42.9687C31.0083 41.6243 31.7902 40.4327 32.8864 39.5818C33.9827 38.7309 35.331 38.269 36.7188 38.269C38.1065 38.269 39.4548 38.7309 40.5511 39.5818C41.6473 40.4327 42.4292 41.6243 42.7734 42.9687" stroke="#ECE8E8" stroke-width="2" stroke-linecap="round" stroke-linejoin="round"/>
<path d="M6.25 15.625V10.9375C6.25 10.5231 6.41462 10.1257 6.70765 9.83266C7.00067 9.53963 7.3981 9.37501 7.8125 9.37501H18.1055C18.3084 9.3743 18.5094 9.41361 18.6971 9.49069C18.8848 9.56778 19.0554 9.68112 19.1992 9.82423L25 15.625" stroke="#ECE8E8" stroke-width="2" stroke-linecap="round" stroke-linejoin="round"/>
<path d="M23.5547 40.625H7.69531C7.50551 40.625 7.31757 40.5876 7.14222 40.515C6.96686 40.4423 6.80753 40.3359 6.67332 40.2017C6.53911 40.0675 6.43265 39.9081 6.36002 39.7328C6.28738 39.5574 6.25 39.3695 6.25 39.1797V15.625H42.1875C42.6019 15.625 42.9993 15.7896 43.2924 16.0826C43.5854 16.3757 43.75 16.7731 43.75 17.1875V23.4375" stroke="#ECE8E8" stroke-width="2" stroke-linecap="round" stroke-linejoin="round"/>
</svg>
