<svg width="32" height="33" viewBox="0 0 32 33" fill="none" xmlns="http://www.w3.org/2000/svg">
<path d="M16 21.6393C18.7614 21.6393 21 19.4008 21 16.6393C21 13.8779 18.7614 11.6393 16 11.6393C13.2386 11.6393 11 13.8779 11 16.6393C11 19.4008 13.2386 21.6393 16 21.6393Z" stroke="#B63181" stroke-width="2" stroke-miterlimit="10"/>
<path d="M21.5 5.13934H10.5C7.18629 5.13934 4.5 7.82563 4.5 11.1393V22.1393C4.5 25.4531 7.18629 28.1393 10.5 28.1393H21.5C24.8137 28.1393 27.5 25.4531 27.5 22.1393V11.1393C27.5 7.82563 24.8137 5.13934 21.5 5.13934Z" stroke="#B63181" stroke-width="2" stroke-linecap="round" stroke-linejoin="round"/>
<path d="M22.5 11.6393C23.3284 11.6393 24 10.9678 24 10.1393C24 9.31092 23.3284 8.63934 22.5 8.63934C21.6716 8.63934 21 9.31092 21 10.1393C21 10.9678 21.6716 11.6393 22.5 11.6393Z" fill="#B63181"/>
</svg>
