<svg width="32" height="33" viewBox="0 0 32 33" fill="none" xmlns="http://www.w3.org/2000/svg">
<path d="M26.5 5.13934H5.5C4.94772 5.13934 4.5 5.58706 4.5 6.13934V27.1393C4.5 27.6916 4.94772 28.1393 5.5 28.1393H26.5C27.0523 28.1393 27.5 27.6916 27.5 27.1393V6.13934C27.5 5.58706 27.0523 5.13934 26.5 5.13934Z" stroke="#A785E0" stroke-width="2" stroke-linecap="round" stroke-linejoin="round"/>
<path d="M15 14.6393V22.6393" stroke="#A785E0" stroke-width="2" stroke-linecap="round" stroke-linejoin="round"/>
<path d="M11 14.6393V22.6393" stroke="#A785E0" stroke-width="2" stroke-linecap="round" stroke-linejoin="round"/>
<path d="M15 18.1393C15 17.2111 15.3687 16.3208 16.0251 15.6645C16.6815 15.0081 17.5717 14.6393 18.5 14.6393C19.4283 14.6393 20.3185 15.0081 20.9749 15.6645C21.6313 16.3208 22 17.2111 22 18.1393V22.6393" stroke="#A785E0" stroke-width="2" stroke-linecap="round" stroke-linejoin="round"/>
<path d="M11 12.1393C11.8284 12.1393 12.5 11.4678 12.5 10.6393C12.5 9.81092 11.8284 9.13934 11 9.13934C10.1716 9.13934 9.5 9.81092 9.5 10.6393C9.5 11.4678 10.1716 12.1393 11 12.1393Z" fill="#A785E0"/>
</svg>
